<?xml version="1.0" encoding="utf-8"?>
<!-- Generator: Adobe Illustrator 23.0.0, SVG Export Plug-In . SVG Version: 6.00 Build 0)  -->
<svg version="1.1" id="Capa_1" xmlns="http://www.w3.org/2000/svg" xmlns:xlink="http://www.w3.org/1999/xlink" x="0px" y="0px"
	 viewBox="0 0 512 511" style="enable-background:new 0 0 512 511;" xml:space="preserve">
<style type="text/css">
	.st0{fill:#4F5D75;}
</style>
<path class="st0" d="M424.1,229.6c0.1-1.6,0.1-2.9,0.1-4.2c0-72.7-59.2-131.9-131.9-131.9c-52.3,0-99.4,30.7-120.5,78.3
	c-11.6-9.9-26.3-15.3-41.6-15.3c-35.3,0-64.1,28.7-64.2,64C25.9,235.1-1,273.3-1,316c0,55.3,43.3,99.8,98.5,101.5l0.4,0
	c4,0,86.4,0,166,0c93.5,0,153.6,0,155.7,0l0.7,0c50.9-1.8,90.8-43.1,90.8-94.1C511,274.2,473,233.3,424.1,229.6z"/>
</svg>
