<?xml version="1.0" encoding="utf-8"?>
<!-- Generator: Adobe Illustrator 23.0.0, SVG Export Plug-In . SVG Version: 6.00 Build 0)  -->
<svg version="1.1" id="Capa_1" xmlns="http://www.w3.org/2000/svg" xmlns:xlink="http://www.w3.org/1999/xlink" x="0px" y="0px"
	 viewBox="0 0 512 512" style="enable-background:new 0 0 512 512;" xml:space="preserve">
<style type="text/css">
	.st0{fill:#4F5D75;}
</style>
<path class="st0" d="M256.4,89.8c-51.1,0-92.7,41.6-92.7,92.7s41.6,92.7,92.7,92.7c51.1,0,92.7-41.6,92.7-92.7
	S307.5,89.8,256.4,89.8z"/>
<path class="st0" d="M256.4,0C155.8,0,74,81.8,74,182.4c0,7,0.5,14.4,1.5,22.6c6.2,56.7,36.8,124.9,90.9,202.7
	c39.9,57.3,77.4,97.8,79,99.5c5.9,6.4,16,6.4,22,0c1.6-1.7,39.2-42.2,79.1-99.6c54.2-77.9,84.7-146.2,90.8-202.9
	c1-8.2,1.5-15.5,1.5-22.3C438.9,81.8,357,0,256.4,0z M256.4,305.2c-67.7,0-122.7-55-122.7-122.7c0-67.7,55-122.7,122.7-122.7
	c67.6,0,122.7,55,122.7,122.7C379.1,250.1,324.1,305.2,256.4,305.2z"/>
</svg>
