<?xml version="1.0" encoding="utf-8"?>
<!-- Generator: Adobe Illustrator 23.0.0, SVG Export Plug-In . SVG Version: 6.00 Build 0)  -->
<svg version="1.1" id="Capa_1" xmlns="http://www.w3.org/2000/svg" xmlns:xlink="http://www.w3.org/1999/xlink" x="0px" y="0px"
	 viewBox="0 0 512 511" style="enable-background:new 0 0 512 511;" xml:space="preserve">
<style type="text/css">
	.st0{fill:#4F5D75;}
</style>
<path class="st0" d="M497.8,66c-22.1-32.9-57.6-33.5-59.1-33.5h-0.1c-33.1,0-64.7,10.4-91.2,30c-20.4,15.1-37.9,36-48.1,57.3
	c-3.3,6.9-2.7,14.8,1.5,21.2c4.3,6.4,11.3,9.9,19,9.5c16.2-0.9,27.2,2.9,33.8,11.4c4.3,5.6,5.9,12.2,6.3,18.1
	c0.4,6.7-0.8,13.5-3.2,19.8c-0.4,1-0.7,1.8-0.8,2l-0.1,0.1c-37.5,95-63,115-77.8,115c-1.4,0-2.2-0.3-2.2-0.3l-0.3-0.1
	c-2.7-1.1-17.1-9.6-33-72.1c-10.3-40.3-16.8-86.3-19.7-110.2l0-0.2c-1.9-13.8-4.6-26.4-8-37.4c-5.8-18.9-18.7-34.2-36.4-43.2
	c-17.7-9.1-37.9-10.6-56.8-4.2c-3.3,1.1-6.3,2.4-9.1,3.8c-36.4,18.5-83.4,65.2-106,87.7c-8,7.9-8.5,20.4-1.3,29
	c7.5,9,20.6,10.3,29.8,3c9.1-7.2,17.4-10.9,24.7-10.9c12.7,0,18.2,11.6,18.2,11.7l0.2,0.4c29.5,59.4,49.1,142.9,49.3,143.7l0,0.1
	c15.6,64.4,34.8,110.7,57,137.6c19.2,23.1,35.3,24.9,39.8,24.9h1.1l0.9-0.1C338.5,466,442.5,297.3,482,225.4
	c11.7-21.4,20.2-43.7,25.2-66.3C515.9,119.6,512.7,88.3,497.8,66z"/>
</svg>
