<?xml version="1.0" encoding="utf-8"?>
<!-- Generator: Adobe Illustrator 23.0.0, SVG Export Plug-In . SVG Version: 6.00 Build 0)  -->
<svg version="1.1" id="Capa_1" xmlns="http://www.w3.org/2000/svg" xmlns:xlink="http://www.w3.org/1999/xlink" x="0px" y="0px"
	 viewBox="0 0 512 512" style="enable-background:new 0 0 512 512;" xml:space="preserve">
<style type="text/css">
	.st0{fill:#4F5D75;}
</style>
<path class="st0" d="M319.6,307.9c-7.1,7.1-17.8,8.8-26.7,4.2c-40.3-20.6-72.5-52.7-93-93c-4.5-8.9-2.8-19.6,4.2-26.7l15.6-15.6
	l-32.6-32.6l-26.4,26.4c-4.4,4.4-5.9,17.9,4.2,41.6c10.7,25,30.7,52.9,56.4,78.5s53.6,45.7,78.5,56.4c23.7,10.1,37.2,8.6,41.6,4.2
	l26.4-26.4l-32.6-32.6L319.6,307.9z"/>
<path class="st0" d="M439.3,72.7C392.4,25.8,330,0,263.7,0c0,0,0,0,0,0c-32.8,0-64.8,6.4-95,18.9c-30.2,12.5-57.3,30.6-80.5,53.8
	C41.2,119.6,15.4,182,15.4,248.3c0,39.6,9.5,78.9,27.6,113.9L1.3,481.4c-2.9,8.4-0.9,17.6,5.4,23.9c4.4,4.4,10.2,6.8,16.2,6.8
	c2.6,0,5.1-0.4,7.7-1.3L149.8,469c35,18.1,74.3,27.6,113.9,27.6c66.3,0,128.7-25.8,175.6-72.7C486.2,377,512,314.6,512,248.3
	C512,182,486.2,119.6,439.3,72.7z M389.6,345.6l-26.9,26.9c-8.1,8.1-19.3,12.2-32.8,12.2c-12.2,0-26.4-3.3-41.9-10
	c-28.4-12.2-59.7-34.5-87.9-62.8s-50.6-59.5-62.8-87.9c-14-32.7-13.3-59.3,2.2-74.7l26.9-26.9c11.4-11.4,30-11.4,41.4,0l33.7,33.7
	c11.4,11.4,11.4,30,0,41.4L229,209.9c16.9,31,42,56.1,73,73l12.5-12.5c11.4-11.4,30-11.4,41.4,0l33.7,33.7
	c5.5,5.5,8.6,12.9,8.6,20.7S395.2,340,389.6,345.6z"/>
</svg>
